<svg width="2399" height="389" viewBox="0 0 2399 389" fill="none" xmlns="http://www.w3.org/2000/svg">
<path d="M2337.54 126.7V262.004C2337.54 272.15 2339.52 279.443 2343.48 283.881C2347.6 288.162 2354.34 290.302 2363.69 290.302H2398.41V341.427H2346.81C2322.55 341.427 2304.72 335.72 2293.31 324.306C2281.89 312.892 2276.18 295.058 2276.18 270.803V126.7H2236.71V81.9951H2276.18V27.3027H2337.54V81.9951H2398.41V126.7H2337.54Z" fill="white"/>
<path d="M2148.96 56.5513V0.669922H2210.31V56.5513H2148.96ZM2148.96 81.9951H2209.83V340H2148.96V81.9951Z" fill="white"/>
<path d="M1776.1 340H1714.75V81.9951H1776.1V116.951H1777.52C1785.13 104.268 1795.28 94.4396 1807.96 87.4644C1820.64 80.4891 1834.99 77.0015 1851 77.0015C1867.96 77.0015 1883.02 80.8854 1896.18 88.6533C1909.5 96.2627 1919.41 106.963 1925.91 120.755H1928.05C1936.13 106.805 1947.15 96.0249 1961.1 88.4155C1975.21 80.8062 1991.3 77.0015 2009.37 77.0015C2037.75 77.0015 2059.78 86.2754 2075.48 104.823C2084.83 115.128 2091.25 126.938 2094.74 140.254C2098.23 153.571 2099.97 171.167 2099.97 193.044V340H2038.62V200.654C2038.62 178.777 2037.11 163.875 2034.1 155.949C2031.09 147.071 2026.02 140.096 2018.88 135.023C2011.75 129.792 2003.19 127.176 1993.2 127.176C1982.9 127.176 1973.46 129.95 1964.9 135.499C1956.5 140.889 1949.84 148.973 1944.93 159.753C1940.17 169.741 1937.8 186.465 1937.8 209.928V340H1876.45V200.654C1876.45 179.094 1875.1 164.192 1872.4 155.949C1869.39 147.23 1864.24 140.254 1856.95 135.023C1849.81 129.792 1841.33 127.176 1831.5 127.176C1809.31 127.176 1793.22 138.035 1783.23 159.753C1778.47 169.741 1776.1 186.465 1776.1 209.928V340Z" fill="white"/>
<path d="M1356.5 340H1295.15V81.9951H1356.5V116.951H1357.92C1365.53 104.268 1375.68 94.4396 1388.36 87.4644C1401.04 80.4891 1415.39 77.0015 1431.4 77.0015C1448.36 77.0015 1463.42 80.8854 1476.58 88.6533C1489.9 96.2627 1499.81 106.963 1506.31 120.755H1508.45C1516.53 106.805 1527.55 96.0249 1541.5 88.4155C1555.61 80.8062 1571.7 77.0015 1589.77 77.0015C1618.15 77.0015 1640.18 86.2754 1655.88 104.823C1665.23 115.128 1671.65 126.938 1675.14 140.254C1678.63 153.571 1680.37 171.167 1680.37 193.044V340H1619.02V200.654C1619.02 178.777 1617.51 163.875 1614.5 155.949C1611.49 147.071 1606.42 140.096 1599.28 135.023C1592.15 129.792 1583.59 127.176 1573.6 127.176C1563.3 127.176 1553.87 129.95 1545.3 135.499C1536.9 140.889 1530.24 148.973 1525.33 159.753C1520.57 169.741 1518.2 186.465 1518.2 209.928V340H1456.85V200.654C1456.85 179.094 1455.5 164.192 1452.8 155.949C1449.79 147.23 1444.64 140.254 1437.35 135.023C1430.21 129.792 1421.73 127.176 1411.9 127.176C1389.71 127.176 1373.62 138.035 1363.63 159.753C1358.88 169.741 1356.5 186.465 1356.5 209.928V340Z" fill="white"/>
<path d="M1140.09 344.756C1099.19 344.756 1067.01 332.708 1043.54 308.612C1020.24 284.357 1008.59 251.779 1008.59 210.879C1008.59 169.82 1020.24 137.242 1043.54 113.146C1066.85 89.0496 1099.03 77.0015 1140.09 77.0015C1180.83 77.0015 1212.85 89.0496 1236.16 113.146C1259.46 137.242 1271.11 169.82 1271.11 210.879C1271.11 251.938 1259.46 284.515 1236.16 308.612C1212.85 332.708 1180.83 344.756 1140.09 344.756ZM1140.09 295.771C1162.44 295.771 1179.56 288.32 1191.45 273.418C1203.5 258.517 1209.52 237.67 1209.52 210.879C1209.52 184.088 1203.5 163.241 1191.45 148.339C1179.56 133.438 1162.28 125.908 1139.61 125.749C1117.26 125.908 1100.06 133.438 1088.01 148.339C1075.96 163.241 1069.94 184.088 1069.94 210.879C1069.94 237.67 1075.96 258.517 1088.01 273.418C1100.06 288.32 1117.42 295.771 1140.09 295.771Z" fill="white"/>
<path d="M879.209 344.756C839.894 344.756 808.347 332.946 784.567 309.325C760.788 285.704 748.898 252.889 748.898 210.879C748.898 168.71 760.788 135.895 784.567 112.433C808.347 88.8118 839.894 77.0015 879.209 77.0015C911.707 77.0015 938.182 85.0864 958.632 101.256C979.082 117.426 991.764 140.492 996.679 170.454H936.279C928.828 140.968 909.805 126.225 879.209 126.225C858.759 126.225 842.272 133.2 829.748 147.15C817.383 161.101 811.2 182.344 811.2 210.879C811.2 239.414 817.383 260.736 829.748 274.845C842.272 288.796 858.759 295.771 879.209 295.771C907.744 295.771 925.975 282.772 933.901 256.773H995.252C989.386 285.15 976.466 306.947 956.492 322.166C936.517 337.226 910.756 344.756 879.209 344.756Z" fill="white"/>
<path fill-rule="evenodd" clip-rule="evenodd" d="M181.5 25.9868C81.2603 25.9868 0 107.247 0 207.487C0 307.727 81.2603 388.987 181.5 388.987H448.5C513.281 388.987 570.136 355.048 602.253 303.981C573.278 341.685 527.727 365.987 476.5 365.987C388.963 365.987 318 295.024 318 207.487C318 119.95 388.963 48.9868 476.5 48.9868C527.727 48.9868 573.278 73.2888 602.253 110.993C570.136 59.9257 513.281 25.9868 448.5 25.9868L181.5 25.9868Z" fill="white"/>
</svg>
